# AST/ASF file generated using VICON BodyLanguage
# -----------------------------------------------
:version 1.10
:name VICON
:units
  mass 1.0
  length 0.45
  angle deg
:documentation
   .ast/.asf automatically generated from VICON data using
   VICON BodyBuilder and BodyLanguage model FoxedUp or BRILLIANT.MOD
:root
   order TX TY TZ RX RY RZ
   axis XYZ
   position 0 0 0  
   orientation 0 -0 0 
:bonedata
  begin
     id 1 
     name lhipjoint
     direction 0.500677 -0.737119 0.453848 
     length 2.34727 
     axis 0 -0 0  XYZ
  end
  begin
     id 2 
     name lfemur
     direction 0.34202 -0.939693 0  
     length 7.53653  
     axis 0 -0 20  XYZ
    dof rx ry rz
    limits (-160.0 20.0)
           (-70.0 70.0)
           (-60.0 70.0)
  end
  begin
     id 3 
     name ltibia
     direction 0.34202 -0.939693 0   
     length 6.85572   
     axis 0 -0 20   XYZ
    dof rx
    limits (-10.0 170.0)
  end
  begin
     id 4 
     name lfoot
     direction 0.155313 -0.426718 0.890949   
     length 2.18324   
     axis -90 -1.13533e-015 20   XYZ
    dof rx rz
    limits (-45.0 90.0)
           (-70.0 20.0)
  end
  begin
     id 5 
     name ltoes
     direction 1.53474e-011 -4.21647e-011 1   
     length 1.06748   
     axis -90 -1.13533e-015 20   XYZ
    dof rx
    limits (-90.0 20.0)
  end
  begin
     id 6 
     name rhipjoint
     direction -0.632471 -0.659587 0.406111   
     length 2.62319  
     axis 0 -0 0  XYZ 
  end
  begin
     id 7 
     name rfemur
     direction -0.34202 -0.939693 0   
     length 7.21735   
     axis 0 -0 -20   XYZ
    dof rx ry rz
    limits (-160.0 20.0)
           (-70.0 70.0)
           (-70.0 60.0)
  end
  begin
     id 8 
     name rtibia
     direction -0.34202 -0.939693 0   
     length 7.02558   
     axis 0 -0 -20   XYZ
    dof rx
    limits (-10.0 170.0)
 end
 begin
     id 9 
     name rfoot
     direction -0.16057 -0.441164 0.882945   
     length 2.10014  
     axis -90 1.13533e-015 -20   XYZ
    dof rx rz
    limits (-45.0 90.0)
           (-20.0 70.0)
  end
  begin
     id 10 
     name rtoes
     direction -1.53553e-011 -4.2192e-011 1   
     length 1.02554   
     axis -90 1.13533e-015 -20   XYZ
    dof rx
    limits (-90.0 20.0)
  end
  begin
     id 11 
     name lowerback
     direction 0.0401429 0.998861 -0.0258085   
     length 1.80848   
     axis 0 -0 0   XYZ
    dof rx ry rz
    limits (-20.0 45.0)
           (-30.0 30.0)
           (-30.0 30.0)
  end
  begin
     id 12 
     name upperback
     direction -0.0130978 0.999914 -0.000352645   
     length 1.8116   
     axis 0 -0 0   XYZ
    dof rx ry rz
    limits (-20.0 45.0)
           (-30.0 30.0)
           (-30.0 30.0)
  end
  begin
     id 13 
     name thorax
     direction -0.0300198 0.999453 0.0138573   
     length 1.81778   
     axis 0 -0 0   XYZ
    dof rx ry rz
    limits (-20.0 45.0)
           (-30.0 30.0)
           (-30.0 30.0)
  end
  begin
     id 14 
     name lowerneck
     direction -0.0401726 0.999191 -0.00173647   
     length 2.10594   
     axis 0 -0 0   XYZ
    dof rx ry rz
    limits (-20.0 45.0)
           (-30.0 30.0)
           (-30.0 30.0)
  end
  begin
     id 15 
     name upperneck
     direction 0.0119835 0.998501 0.0534085   
     length 2.07325   
     axis 0 -0 0   XYZ
    dof rx ry rz
    limits (-20.0 45.0)
           (-30.0 30.0)
           (-30.0 30.0)
  end
  begin
     id 16
     name head
     direction 0.00628309 0.999826 0.0175921  
     length 2.15096  
     axis 0 -0 0   XYZ
    dof rx ry rz
    limits (-20.0 45.0)
           (-30.0 30.0)
           (-30.0 30.0)
  end
  begin
     id 17 
     name lclavicle
     direction 0.895501 0.429681 -0.115981  
     length 4.18092  
     axis 0 -0 0   XYZ
    dof ry rz
    limits (-20.0 10.0)
           (0.0 20.0)
  end
  begin
     id 18 
     name lhumerus
     direction 1 -4.48961e-011 -3.38433e-028   
     length 5.77237   
     axis 180 -30 -90   XYZ
    dof rx ry rz
    limits (-60.0 90.0)
           (-90.0 90.0)
           (-90.0 90.0)
  end
  begin
     id 19
     name lradius
     direction 1 -4.4901e-011 1.11983e-026   
     length 2.91878   
     axis 180 -30 -90   XYZ
    dof rx
    limits (-10.0 170.0)
  end
  begin
     id 20
     name lwrist
     direction 1 -4.48934e-011 1.88176e-026   
     length 1.45939   
     axis -1.23311e-014 90 90   XYZ
    dof ry
    limits (-180.0 0.0)
 end
  begin
     id 21 
     name lhand
     direction 1 -4.4895e-011 3.76352e-026   
     length 1.06566   
     axis -2.40147e-014 90 90   XYZ
    dof rx rz
    limits (-90.0 90.0)
           (-45.0 45.0)
  end
  begin
     id 22 
     name lfingers
     direction 1 -4.49005e-011 7.52705e-026   
     length 0.859162   
     axis -4.80295e-014 90 90   XYZ
    dof rx
    limits (0.0 90.0)
  end
  begin
     id 23
     name lthumb
     direction 0.707107 -6.34885e-011 0.707107   
     length 1.23359   
     axis -90 45 -9.86935e-015   XYZ
    dof rx rz
    limits (-45.0 45.0)
           (-45.0 45.0)
  end
  begin
     id 24 
     name rclavicle
     direction -0.91006 0.40451 -0.0903492   
     length 4.23293  
     axis 0 -0 0   XYZ 
    dof ry rz
    limits (-10.0 20.0)
           (-20.0 0.0)
  end
  begin
     id 25 
     name rhumerus
     direction -1 -4.4897e-011 1.7415e-027  
     length 5.49854   
     axis 180 30 90   XYZ
    dof rx ry rz
    limits (-90.0 60.0)
           (-90.0 90.0)
           (-90.0 90.0)
  end
  begin
     id 26 
     name rradius
     direction -1 -4.48963e-011 1.21259e-026   
     length 3.1186   
     axis 180 30 90   XYZ
    dof rx
    limits (-10.0 170.0)
  end
  begin
     id 27 
     name rwrist
     direction -1 -4.48967e-011 1.88176e-026   
     length 1.5593   
     axis -1.23311e-014 -90 -90   XYZ
    dof ry
    limits (-180.0 0.0)
  end
  begin
     id 28
     name rhand
     direction -1 -4.4895e-011 3.76352e-026   
     length 0.71207   
     axis -2.40147e-014 -90 -90   XYZ
    dof rx rz
    limits (-90.0 90.0)
           (-45.0 45.0)
  end
  begin
     id 29
     name rfingers
     direction -1 -4.49005e-011 7.52705e-026   
     length 0.574089   
     axis -4.80295e-014 -90 -90   XYZ
    dof rx
    limits (0.0 90.0)
  end
  begin
     id 30
     name rthumb
     direction -0.707107 -6.34982e-011 0.707107   
     length 0.824281   
     axis -90 -45 9.86935e-015   XYZ
    dof rx rz
    limits (-45.0 45.0)
           (-45.0 45.0)
  end
:hierarchy
  begin
    root lhipjoint rhipjoint lowerback
    lhipjoint lfemur
    lfemur ltibia
    ltibia lfoot
    lfoot ltoes
    rhipjoint rfemur
    rfemur rtibia
    rtibia rfoot
    rfoot rtoes
    lowerback upperback
    upperback thorax
    thorax lowerneck lclavicle rclavicle
    lowerneck upperneck
    upperneck head
    lclavicle lhumerus
    lhumerus lradius
    lradius lwrist
    lwrist lhand lthumb
    lhand lfingers
    rclavicle rhumerus
    rhumerus rradius
    rradius rwrist
    rwrist rhand rthumb
    rhand rfingers
  end

#!OML:ASF C:\ViconDB\ViconDB\414\Spring2016\042216\male.ASF
:FULLY-SPECIFIED
:DEGREES
170
root -13.6839 16.6576 11.3281 -145.977 68.3734 -152.673
lowerback 9.81198 -3.79729 5.60704
upperback 1.82286 -4.4728 -1.73864
thorax -4.15971 -2.2753 -4.36023
lowerneck 0.0937831 7.53833 -8.07365
upperneck -22.8558 10.6417 -0.674293
head -7.46388 6.18137 0.356216
rclavicle -3.97569e-015 4.45278e-014
rhumerus -31.5837 -4.2543 -41.9636
rradius 37.3047
rwrist 11.564
rhand -3.9612 -29.1736
rfingers 7.12502
rthumb 21.7912 -57.9668
lclavicle -3.97569e-015 4.45278e-014
lhumerus -32.462 24.5385 31.1284
lradius 49.691
lwrist 11.2156
lhand -41.1755 17.025
lfingers 7.12502
lthumb -14.1007 46.5266
rfemur -37.6558 -6.13199 27.9141
rtibia 83.7945
rfoot -15.5535 -17.2385
rtoes -18.512
lfemur -28.7242 -1.77076 -6.62399
ltibia 49.7284
lfoot -29.9588 11.1502
ltoes -25.3044
171
root -13.6306 16.607 11.26 -145.484 67.9882 -152.46
lowerback 9.65182 -3.95759 6.13694
upperback 1.98143 -4.64424 -1.83839
thorax -3.97504 -2.35783 -4.75148
lowerneck 0.0492756 7.47915 -8.17796
upperneck -23.4034 10.6532 -0.457906
head -7.65752 6.20615 0.425375
rclavicle -2.14687e-014 -9.54166e-015
rhumerus -31.4575 -4.95476 -43.0606
rradius 36.5484
rwrist 12.1351
rhand -3.77069 -29.6448
rfingers 7.12502
rthumb 21.9741 -58.4166
lclavicle -2.14687e-014 -9.54166e-015
lhumerus -31.6169 25.0139 32.5093
lradius 49.1485
lwrist 12.0859
lhand -41.6573 17.2397
lfingers 7.12502
lthumb -14.565 46.7084
rfemur -40.9526 -7.01736 28.1455
rtibia 87.5639
rfoot -15.7192 -16.4012
rtoes -18.3756
lfemur -29.3614 -0.588544 -6.65655
ltibia 50.6543
lfoot -30.8837 10.1586
ltoes -25.0306
172
root -13.5707 16.5667 11.1836 -145.234 67.6387 -152.161
lowerback 9.6582 -4.21742 6.60983
upperback 2.21606 -4.93957 -1.87576
thorax -3.81339 -2.49568 -5.01967
lowerneck -0.0682754 7.5164 -7.893
upperneck -23.7515 10.7278 -0.659271
head -7.72785 6.25432 0.305818
rclavicle -7.15625e-015 -2.06736e-014
rhumerus -30.9434 -5.70032 -43.9951
rradius 35.7485
rwrist 13.1257
rhand -3.70984 -30.0538
rfingers 7.12502
rthumb 22.0326 -58.8188
lclavicle -7.15625e-015 -2.06736e-014
lhumerus -31.0297 25.8261 33.5898
lradius 48.525
lwrist 12.6078
lhand -41.9317 17.2511
lfingers 7.12502
lthumb -14.8293 46.7004
rfemur -43.7853 -7.90985 28.2938
rtibia 91.2878
rfoot -16.1502 -15.466
rtoes -17.8743
lfemur -29.349 -0.113036 -6.70162
ltibia 51.3414
lfoot -31.8579 10.091
ltoes -25.0756
173
root -13.5226 16.5261 11.1126 -144.832 67.1597 -151.616
lowerback 9.88553 -4.54464 7.07047
upperback 2.42657 -5.3005 -1.7247
thorax -3.79416 -2.66732 -5.05605
lowerneck 0.158215 7.47756 -7.9159
upperneck -24.4931 10.7054 -0.668798
head -8.01867 6.27366 0.273057
rclavicle 1.31198e-014 -1.59028e-014
rhumerus -30.1754 -6.43274 -44.5478
rradius 35.0838
rwrist 13.9658
rhand -3.8674 -30.1336
rfingers 7.12502
rthumb 21.8813 -58.9163
lclavicle 1.31198e-014 -1.59028e-014
lhumerus -30.4703 26.5136 34.6572
lradius 47.7647
lwrist 12.668
lhand -42.0924 17.3281
lfingers 7.12502
lthumb -14.9842 46.766
rfemur -46.6533 -8.79935 28.618
rtibia 95.0652
rfoot -16.6092 -14.6054
rtoes -17.7121
lfemur -29.2804 0.164434 -6.53456
ltibia 51.8682
lfoot -32.675 10.1801
ltoes -24.79
174
root -13.4686 16.4881 11.0409 -144.556 66.7789 -151.096
lowerback 10.212 -4.90805 7.41525
upperback 2.5496 -5.70954 -1.53797
thorax -3.9168 -2.86833 -4.96783
lowerneck 0.319095 7.58932 -7.88372
upperneck -24.8688 10.8619 -0.710474
head -8.17776 6.35844 0.221299
rclavicle -1.19271e-014 1.59028e-014
rhumerus -29.1786 -7.33472 -44.8595
rradius 34.4336
rwrist 14.888
rhand -4.16595 -30.0746
rfingers 7.12502
rthumb 21.5946 -58.8905
lclavicle -1.19271e-014 1.59028e-014
lhumerus -30.0355 27.1631 35.4439
lradius 46.6351
lwrist 11.9368
lhand -42.1596 17.316
lfingers 7.12502
lthumb -15.0489 46.749
rfemur -49.3625 -9.63587 28.8529
rtibia 98.8388
rfoot -16.9503 -13.1885
rtoes -16.5704
lfemur -28.9386 0.484869 -6.46797
ltibia 52.2456
lfoot -33.5624 10.4938
ltoes -24.4814
175
root -13.4054 16.4647 10.9751 -144.924 66.3616 -151.065
lowerback 10.5722 -5.29086 7.6889
upperback 2.7253 -6.15135 -1.506
thorax -4.0181 -3.08208 -4.99212
lowerneck 0.330772 7.72433 -7.68858
upperneck -24.9715 11.1113 -0.528388
head -8.22205 6.44671 0.225655
rclavicle 1.70955e-014 -1.43125e-014
rhumerus -28.4992 -8.51913 -45.0865
rradius 34.1827
rwrist 15.1348
rhand -4.57454 -29.9246
rfingers 7.12502
rthumb 21.2022 -58.7851
lclavicle 1.70955e-014 -1.43125e-014
lhumerus -29.3645 27.2918 36.0839
lradius 45.9694
lwrist 12.0728
lhand -42.2095 17.3528
lfingers 7.12502
lthumb -15.097 46.7823
rfemur -51.7445 -10.6086 28.9024
rtibia 102.592
rfoot -17.41 -11.9996
rtoes -16.1345
lfemur -28.3162 0.342756 -6.45415
ltibia 52.5113
lfoot -34.4596 10.6938
ltoes -24.1307
176
root -13.3475 16.4356 10.9286 -145.073 65.9253 -150.901
lowerback 11.1451 -5.63034 7.88657
upperback 2.69835 -6.51767 -1.35932
thorax -4.41989 -3.27395 -4.83284
lowerneck 0.486154 7.84565 -7.76001
upperneck -24.9983 11.3322 -0.181996
head -8.29281 6.52167 0.321562
rclavicle 6.44062e-014 -1.59028e-014
rhumerus -28.0244 -9.62199 -44.9367
rradius 34.1582
rwrist 14.782
rhand -4.74301 -29.7593
rfingers 7.12502
rthumb 21.0403 -58.6379
lclavicle 6.44062e-014 -1.59028e-014
lhumerus -28.723 27.5444 36.6054
lradius 45.5907
lwrist 11.8699
lhand -42.012 17.6743
lfingers 7.12502
lthumb -14.9067 47.1179
rfemur -54.4407 -11.5717 29.1204
rtibia 106.396
rfoot -17.8647 -10.8923
rtoes -16.1161
lfemur -27.8636 0.1376 -6.36934
ltibia 52.7608
lfoot -34.8121 11.6324
ltoes -25.0806
